<svg id="Layer_1" data-name="Layer 1" xmlns="http://www.w3.org/2000/svg" xmlns:xlink="http://www.w3.org/1999/xlink" viewBox="0 0 2653.48147 2063.73251"><defs><clipPath id="clip-path" transform="translate(356.05996 768.0467)"><rect width="1920" height="1080" style="fill:none"/></clipPath><clipPath id="clip-path-2" transform="translate(356.05996 768.0467)"><rect y="-768.0467" width="1946.24435" height="1946.24435" style="fill:none"/></clipPath></defs><g style="clip-path:url(#clip-path)"><g style="clip-path:url(#clip-path-2)"><rect x="356.05996" width="1946.24435" height="1946.24435" style="fill:#77d7ed"/><rect x="1281.39986" y="1601.0896" width="649.26554" height="159.22809" rx="20.4532" style="fill:#fff"/><circle cx="1405.11561" cy="1606.29424" r="89.44472" style="fill:#fff"/><circle cx="1499.52636" cy="1619.86774" r="82.57603" style="fill:#fff"/><circle cx="1595.65983" cy="1572.48409" r="91.48881" style="fill:#fff"/><circle cx="1717.04417" cy="1589.34557" r="128.97805" style="fill:#fff"/><circle cx="1445.59446" cy="867.79144" r="91.48871" transform="translate(165.84356 2044.40657) rotate(-45)" style="fill:#fff"/><rect x="645.48206" y="1621.42006" width="697.80915" height="171.13288" rx="21.9824" style="fill:#fff"/><circle cx="776.75478" cy="1649.18752" r="88.74996" style="fill:#fff"/><circle cx="523.85725" cy="873.55524" r="88.75025" transform="translate(-108.20264 1394.32811) rotate(-45)" style="fill:#fff"/><circle cx="1000.10879" cy="1573.8052" r="115.19975" style="fill:#fff"/><circle cx="1115.30854" cy="1621.42006" r="115.19976" style="fill:#fff"/><circle cx="1204.63454" cy="1658.76655" r="98.32893" style="fill:#fff"/><path d="M865.50453,1818.98722h927.35532a31.17784,31.17784,0,0,1,31.17784,31.17784v180.3638a31.178,31.178,0,0,1-31.178,31.178H865.50437a31.17784,31.17784,0,0,1-31.17784-31.17784v-180.3638a31.178,31.178,0,0,1,31.178-31.178Z" style="fill:#e2f7fa"/><circle cx="664.45238" cy="1090.32327" r="125.87525" transform="translate(-220.30142 1557.23377) rotate(-45)" style="fill:#e2f7fa"/><circle cx="790.32748" cy="1020.92156" r="125.87496" transform="translate(-134.35904 1625.91362) rotate(-45)" style="fill:#e2f7fa"/><circle cx="1329.18212" cy="1788.96835" r="163.38916" style="fill:#e2f7fa"/><circle cx="1500.68712" cy="1788.96835" r="163.38915" style="fill:#e2f7fa"/><circle cx="1221.76724" cy="1678.24261" r="75.37994" style="fill:#e2f7fa"/><circle cx="1627.37934" cy="1871.95621" r="139.46139" style="fill:#e2f7fa"/><rect y="1649.79553" width="989.71078" height="242.71964" rx="31.1779" style="fill:#d9f7f9"/><circle cx="186.18542" cy="1689.17817" r="125.87525" style="fill:#d9f7f9"/><circle cx="-43.99943" cy="851.72986" r="125.87496" transform="translate(-259.09114 986.4003) rotate(-45)" style="fill:#d9f7f9"/><circle cx="138.79528" cy="851.72986" r="163.38892" transform="translate(-205.55181 1115.65568) rotate(-45)" style="fill:#d9f7f9"/><circle cx="310.30024" cy="851.72986" r="163.38896" transform="translate(-155.31917 1236.928) rotate(-45)" style="fill:#d9f7f9"/><circle cx="31.38047" cy="741.00413" r="75.37969" transform="translate(-349.02204 1421.33024) rotate(-80.78251)" style="fill:#d9f7f9"/><circle cx="436.99247" cy="934.71772" r="139.46139" transform="translate(-176.89315 1350.81952) rotate(-45)" style="fill:#d9f7f9"/><path d="M1429.07036,1150.38038h746.99153a121.35985,121.35985,0,0,0,121.35962-121.36h0a121.35985,121.35985,0,0,0-121.35962-121.36H1429.07036a121.3601,121.3601,0,0,0-121.35962,121.36h0A121.3601,121.3601,0,0,0,1429.07036,1150.38038Z" transform="translate(356.05996 768.0467)" style="fill:#d7f7f9"/><circle cx="2467.29605" cy="1715.09008" r="125.87525" style="fill:#d7f7f9"/><circle cx="1985.36099" cy="877.64158" r="125.87506" transform="translate(316.97242 2428.96418) rotate(-45)" style="fill:#d7f7f9"/><circle cx="2158.62628" cy="1645.68817" r="163.38916" style="fill:#d7f7f9"/><circle cx="1987.12128" cy="1645.68817" r="163.38916" style="fill:#d7f7f9"/><circle cx="1909.9811" cy="766.91584" r="75.37987" transform="translate(819.33544 2998.9402) rotate(-67.21696)" style="fill:#d7f7f9"/><circle cx="1860.42897" cy="1728.67603" r="139.46124" style="fill:#d7f7f9"/><polygon points="2028.115 787.56 2054.617 816.588 2089.449 798.376 2104.425 834.717 2143.384 829.515 2145.028 868.787 2183.417 877.225 2171.53 914.69 2204.717 935.749 2180.733 966.888 2204.717 998.028 2171.53 1019.086 2183.417 1056.552 2145.028 1064.99 2143.384 1104.261 2104.425 1099.06 2089.449 1135.401 2054.617 1117.189 2028.115 1146.215 2001.612 1117.189 1966.782 1135.401 1951.806 1099.06 1912.845 1104.261 1911.202 1064.99 1872.813 1056.552 1884.699 1019.086 1851.512 998.028 1875.496 966.888 1851.512 935.749 1884.699 914.69 1872.813 877.225 1911.202 868.787 1912.845 829.515 1951.806 834.717 1966.782 798.376 2001.612 816.588 2028.115 787.56" style="fill:#fcd24e"/><ellipse cx="2028.11487" cy="966.88788" rx="136.08782" ry="130.36675" style="fill:#ffe69f"/><g style="opacity:0.74"><path d="M1388.04,924.76831h322.959a10.85788,10.85788,0,0,1,10.85788,10.85788v62.813a10.858,10.858,0,0,1-10.858,10.858H1388.04a10.8579,10.8579,0,0,1-10.8579-10.8579v-62.8131a10.8579,10.8579,0,0,1,10.8579-10.8579Z" style="fill:#fff"/><circle cx="1086.79893" cy="159.4844" r="47.48329" transform="translate(381.56029 1210.74919) rotate(-23.29015)" style="fill:#fff"/><circle cx="1136.9186" cy="166.69018" r="43.83691" transform="translate(1145.7008 2030.07595) rotate(-80.74979)" style="fill:#fff"/><circle cx="1544.01298" cy="909.58254" r="48.56853" style="fill:#fff"/><circle cx="1608.45197" cy="918.53371" r="68.47044" style="fill:#fff"/><circle cx="1062.5825" cy="206.61018" r="49.88882" transform="translate(521.1877 1579.9207) rotate(-45)" style="fill:#fff"/><circle cx="1139.38459" cy="218.95735" r="49.88852" transform="translate(534.95175 1637.84439) rotate(-45)" style="fill:#fff"/><circle cx="1213.16614" cy="203.42437" r="49.88856" transform="translate(1065.77129 2093.82877) rotate(-75.35931)" style="fill:#fff"/><circle cx="1320.86253" cy="203.42437" r="49.88852" transform="translate(599.08888 1761.61917) rotate(-45)" style="fill:#fff"/><circle cx="1270.97387" cy="218.95735" r="49.88856" transform="translate(1120.37849 2173.01301) rotate(-76.64284)" style="fill:#fff"/><circle cx="1653.36894" cy="943.2152" r="48.56853" style="fill:#fff"/></g><g style="opacity:0.81"><path d="M1871.74975,1252.152h256.71581a8.63077,8.63077,0,0,1,8.63077,8.63077v49.92929a8.63091,8.63091,0,0,1-8.63091,8.63091H1871.74963a8.63078,8.63078,0,0,1-8.63078-8.63078V1260.7829a8.6309,8.6309,0,0,1,8.6309-8.6309Z" style="fill:#fff"/><path d="M1597.00847,486.30184a37.74391,37.74391,0,1,1-37.74387-37.74429A37.74374,37.74374,0,0,1,1597.00847,486.30184Z" transform="translate(356.05996 768.0467)" style="fill:#fff"/><circle cx="1955.16385" cy="1260.07594" r="34.84561" style="fill:#fff"/><circle cx="1639.67053" cy="472.03441" r="38.60678" transform="matrix(0.15969, -0.98717, 0.98717, 0.15969, 1267.91665, 2783.33188)" style="fill:#fff"/><circle cx="2046.95242" cy="1247.19648" r="54.42628" style="fill:#fff"/><circle cx="1896.07499" cy="1291.8079" r="39.6559" style="fill:#fff"/><circle cx="1957.124" cy="1301.62281" r="39.6559" style="fill:#fff"/><circle cx="2015.77213" cy="1289.27584" r="39.6559" style="fill:#fff"/><circle cx="2101.37848" cy="1289.27584" r="39.6559" style="fill:#fff"/><circle cx="2061.72257" cy="1301.62281" r="39.6559" style="fill:#fff"/><circle cx="2082.65637" cy="1266.8154" r="38.60648" style="fill:#fff"/></g><rect x="1408.2187" y="1827.02054" width="965.21495" height="236.71197" rx="30.4062" style="fill:#fff"/><circle cx="1236.07805" cy="1066.71085" r="132.97062" transform="translate(339.37525 2881.82318) rotate(-80.6826)" style="fill:#fff"/><circle cx="1732.49112" cy="1854.9363" r="122.7596" style="fill:#fff"/><circle cx="1519.34574" cy="1016.44792" r="136.00939" transform="translate(82.3288 2140.09707) rotate(-45)" style="fill:#fff"/><circle cx="1699.7991" cy="1041.51457" r="191.7424" transform="translate(117.45757 2275.03872) rotate(-45)" style="fill:#fff"/><circle cx="1825.58272" cy="1110.63155" r="136.00964" transform="translate(105.42565 2384.22506) rotate(-45)" style="fill:#fff"/><path d="M223.94518,238.37334H-119.24464a55.75556,55.75556,0,0,1-55.75562-55.756h0a55.75589,55.75589,0,0,1,55.75562-55.7564H223.94518a55.75631,55.75631,0,0,1,55.7564,55.7564h0A55.756,55.756,0,0,1,223.94518,238.37334Z" transform="translate(356.05996 768.0467)" style="fill:#fff"/><circle cx="266.5986" cy="913.00147" r="57.83066" style="fill:#fff"/><circle cx="237.25458" cy="958.60198" r="62.05688" style="fill:#fff"/><circle cx="333.82081" cy="908.05879" r="57.8307" style="fill:#fff"/><circle cx="56.07938" cy="95.83459" r="75.06552" transform="translate(304.71994 835.7701) rotate(-45)" style="fill:#fff"/><circle cx="487.2049" cy="894.90763" r="75.06576" style="fill:#fff"/><circle cx="318.79025" cy="993.44014" r="52.19161" style="fill:#fff"/><circle cx="385.20633" cy="988.22576" r="41.23119" style="fill:#fff"/><circle cx="449.6417" cy="1000.93435" r="41.23113" style="fill:#fff"/><circle cx="528.43618" cy="983.31578" r="41.23114" style="fill:#fff"/><circle cx="218.46806" cy="185.30247" r="61.8103" transform="matrix(0.15939, -0.98722, 0.98722, 0.15939, 356.77217, 1139.48806)" style="fill:#fff"/><path d="M156.65806,240.80537a19.39958,19.39958,0,1,1-19.39977-19.39978A19.3996,19.3996,0,0,1,156.65806,240.80537Z" transform="translate(356.05996 768.0467)" style="fill:#fff"/><circle cx="189.35098" cy="151.19648" r="64.07265" transform="translate(304.60752 946.22248) rotate(-45)" style="fill:#fff"/><path d="M236.23216,1779.84513h918.091a30.86648,30.86648,0,0,1,30.86648,30.86648v178.56213a30.8664,30.8664,0,0,1-30.8664,30.8664H236.23216a30.8664,30.8664,0,0,1-30.8664-30.8664V1810.71153a30.8664,30.8664,0,0,1,30.8664-30.8664Z" style="fill:#fff"/><circle cx="33.63149" cy="1050.78765" r="124.61794" transform="translate(-652.91504 1683.71417) rotate(-80.78253)" style="fill:#fff"/><circle cx="534.54623" cy="1808.18323" r="124.61769" style="fill:#fff"/><circle cx="347.25271" cy="944.94018" r="161.75679" transform="translate(-210.40569 1290.35801) rotate(-45)" style="fill:#fff"/><circle cx="509.00955" cy="1011.79834" r="161.75669" transform="translate(-210.30407 1424.31967) rotate(-45)" style="fill:#fff"/><circle cx="990.4959" cy="1832.28474" r="138.06813" style="fill:#fff"/><path d="M1130.21425,578.44681H861.833a43.60241,43.60241,0,0,1-43.60249-43.60249h0A43.60266,43.60266,0,0,1,861.833,491.24183h268.3813a43.60237,43.60237,0,0,1,43.60245,43.60249h0A43.60212,43.60212,0,0,1,1130.21425,578.44681Z" transform="translate(356.05996 768.0467)" style="fill:#fff"/><circle cx="1241.18364" cy="1273.43811" r="45.22489" style="fill:#fff"/><circle cx="1286.40851" cy="1248.50322" r="45.22487" style="fill:#fff"/><circle cx="1352.08373" cy="1248.50322" r="58.70301" style="fill:#fff"/><circle cx="1413.70254" cy="1248.50322" r="58.70298" style="fill:#fff"/><path d="M984.51408,440.6749a27.08277,27.08277,0,1,1-27.08277-27.08277A27.0826,27.0826,0,0,1,984.51408,440.6749Z" transform="translate(356.05996 768.0467)" style="fill:#fff"/><circle cx="1103.16092" cy="510.27269" r="50.1064" transform="translate(318.35103 1697.55468) rotate(-45)" style="fill:#fff"/><circle cx="1136.16494" cy="539.15924" r="50.1064" transform="translate(307.59181 1729.35272) rotate(-45)" style="fill:#fff"/><circle cx="1066.23912" cy="560.37875" r="50.10641" transform="translate(272.10655 1686.12275) rotate(-45)" style="fill:#fff"/><circle cx="996.02368" cy="550.616" r="50.1064" transform="translate(258.44423 1633.61349) rotate(-45)" style="fill:#fff"/><circle cx="919.67835" cy="567.3537" r="50.1064" transform="translate(224.24786 1584.53155) rotate(-45)" style="fill:#fff"/><circle cx="854.87231" cy="539.15924" r="50.1064" transform="translate(225.2031 1530.44879) rotate(-45)" style="fill:#fff"/><g style="opacity:0.79"><path d="M478.34889,449.06629H271.28018A33.6411,33.6411,0,0,1,237.639,415.42507h0a33.64144,33.64144,0,0,1,33.64123-33.64161H478.34889a33.64143,33.64143,0,0,1,33.64122,33.64161h0A33.6411,33.6411,0,0,1,478.34889,449.06629Z" transform="translate(356.05996 768.0467)" style="fill:#fff"/><circle cx="645.3101" cy="1160.74742" r="34.89319" style="fill:#fff"/><circle cx="680.20324" cy="1141.50879" r="34.89305" style="fill:#fff"/><circle cx="374.81463" cy="373.46219" r="45.29213" transform="translate(281.28837 1420.49321) rotate(-76.71752)" style="fill:#fff"/><circle cx="422.35652" cy="373.46219" r="45.29217" transform="translate(215.68767 1176.0824) rotate(-45)" style="fill:#fff"/><path d="M365.9346,342.769a20.89566,20.89566,0,1,1-20.89566-20.89565A20.89569,20.89569,0,0,1,365.9346,342.769Z" transform="translate(356.05996 768.0467)" style="fill:#fff"/><circle cx="457.47611" cy="396.4668" r="38.65937" transform="translate(209.70724 1207.65359) rotate(-45)" style="fill:#fff"/><circle cx="839.00033" cy="1186.80101" r="38.65937" style="fill:#fff"/><circle cx="785.04898" cy="1203.17282" r="38.65942" style="fill:#fff"/><circle cx="730.87478" cy="1195.64046" r="38.65937" style="fill:#fff"/><circle cx="315.91067" cy="440.50759" r="38.65944" transform="translate(211.53245 922.47183) rotate(-22.49996)" style="fill:#fff"/><path d="M304.56913,418.75432a38.65942,38.65942,0,1,1-38.659-38.65942A38.65974,38.65974,0,0,1,304.56913,418.75432Z" transform="translate(356.05996 768.0467)" style="fill:#fff"/></g><text x="356.05996" y="768.0467"/></g></g></svg>